<?xml version="1.0" encoding="UTF-8" standalone="no"?>
<!-- Created with Inkscape (http://www.inkscape.org/) -->

<svg
   xmlns:dc="http://purl.org/dc/elements/1.1/"
   xmlns:cc="http://creativecommons.org/ns#"
   xmlns:rdf="http://www.w3.org/1999/02/22-rdf-syntax-ns#"
   xmlns:svg="http://www.w3.org/2000/svg"
   xmlns="http://www.w3.org/2000/svg"
   xmlns:sodipodi="http://sodipodi.sourceforge.net/DTD/sodipodi-0.dtd"
   xmlns:inkscape="http://www.inkscape.org/namespaces/inkscape"
   width="210mm"
   height="297mm"
   viewBox="0 0 744.09448819 1052.3622047"
   id="svg4364"
   version="1.1"
   inkscape:version="0.91 r13725"
   sodipodi:docname="mobile_adventure_dude.svg">
  <defs
     id="defs4366" />
  <sodipodi:namedview
     id="base"
     pagecolor="#ffffff"
     bordercolor="#666666"
     borderopacity="1.0"
     inkscape:pageopacity="0.0"
     inkscape:pageshadow="2"
     inkscape:zoom="0.71"
     inkscape:cx="325.45307"
     inkscape:cy="622.64147"
     inkscape:document-units="px"
     inkscape:current-layer="layer1"
     showgrid="false"
     inkscape:snap-others="false"
     inkscape:snap-grids="false"
     inkscape:snap-to-guides="false"
     inkscape:snap-nodes="false"
     inkscape:window-width="1280"
     inkscape:window-height="951"
     inkscape:window-x="0"
     inkscape:window-y="24"
     inkscape:window-maximized="1" />
  <metadata
     id="metadata4369">
    <rdf:RDF>
      <cc:Work
         rdf:about="">
        <dc:format>image/svg+xml</dc:format>
        <dc:type
           rdf:resource="http://purl.org/dc/dcmitype/StillImage" />
        <dc:title></dc:title>
      </cc:Work>
    </rdf:RDF>
  </metadata>
  <g
     inkscape:label="Layer 1"
     inkscape:groupmode="layer"
     id="layer1">
    <g
       id="g5017">
      <path
         sodipodi:nodetypes="csssscsc"
         inkscape:connector-curvature="0"
         id="path4148"
         d="m 156.67138,361.67637 c 0,0 20.43903,-14.29319 19.85034,-27.83284 -0.58867,-13.53967 -13.66696,-31.47348 -11.31224,-31.47348 2.35474,0 57.9829,-15.45618 59.74893,-11.33543 1.76605,4.12077 22.3699,27.07934 37.6756,20.60385 15.30571,-6.47551 4.12076,52.39264 4.12076,52.39264 0,0 -17.66043,65.93229 -64.75493,34.73217 -47.09449,-31.20011 -45.32846,-37.08691 -45.32846,-37.08691 z"
         style="fill:#deaa87;fill-opacity:1;fill-rule:evenodd;stroke:#000000;stroke-width:1.27155125px;stroke-linecap:butt;stroke-linejoin:miter;stroke-opacity:1" />
      <path
         sodipodi:nodetypes="cssssscccc"
         inkscape:connector-curvature="0"
         id="path4177"
         d="m 113.35686,387.11358 c 0,0 33.46186,70.26994 33.46186,80.30851 0,10.03857 98.11912,94.96372 110.42421,108.75111 26.96664,30.21512 171.86162,-61.78822 167.30938,-90.34706 -2.10689,-13.2179 -53.25203,-128.49852 -87.74576,-141.96855 0,0 -28.26049,-53.92414 -51.12104,-57.12962 -16.65146,-2.33487 -33.9476,11.064 -33.9476,11.064 -9.16804,43.73321 3.83192,119.43732 3.83192,119.43732 -17.46091,-33.28962 -45.00829,-56.49275 -80.3085,-71.94304 -3.03738,-5.0623 -61.46199,15.79534 -61.90447,41.82733 z"
         style="fill:#d1c0af;fill-opacity:1;fill-rule:evenodd;stroke:#000000;stroke-width:1.27155125px;stroke-linecap:butt;stroke-linejoin:miter;stroke-opacity:1" />
      <path
         sodipodi:nodetypes="csssscc"
         inkscape:connector-curvature="0"
         id="path4886"
         d="m 287.35862,135.03409 c 0,0 -23.13109,-19.58477 -25.48581,-27.82629 -2.35472,-8.241554 -4.82506,-5.31236 -4.82506,-5.31236 -5.42686,-4.522374 -19.38262,-15.442725 -23.25913,-11.01242 -8.24152,9.4189 -5.08108,38.70218 -1.76603,39.44163 19.2743,4.29925 45.68981,24.71295 45.68981,24.71295 4.061,-11.14822 5.32922,-11.76198 9.64622,-20.00351 z"
         style="fill:#deaa87;fill-opacity:1;fill-rule:evenodd;stroke:#000000;stroke-width:1.27155125px;stroke-linecap:butt;stroke-linejoin:miter;stroke-opacity:1" />
      <path
         sodipodi:nodetypes="csccscc"
         inkscape:connector-curvature="0"
         id="path4185"
         d="m 277.01294,288.09395 c 0,0 28.74971,-53.23191 25.40353,-68.28975 -3.34619,-15.05785 -54.21646,-61.56577 -54.21646,-61.56577 11.83286,-19.54372 12.75697,-36.47039 37.4855,-38.81989 0,0 63.57757,51.86591 73.61614,73.61614 10.03857,21.75022 -19.5416,159.17513 -19.5416,159.17513 -22.38494,-44.95952 -44.85554,-62.38147 -62.74711,-64.11586 z"
         style="fill:#d1c0af;fill-opacity:1;fill-rule:evenodd;stroke:#000000;stroke-width:1.27155125px;stroke-linecap:butt;stroke-linejoin:miter;stroke-opacity:1" />
      <path
         sodipodi:nodetypes="ccccccc"
         inkscape:connector-curvature="0"
         id="path4247"
         d="m 282.07565,284.53904 23.53231,14.20996 13.53944,-88.98338 -63.57757,-51.86591 -5.79937,2.35057 c 18.10637,17.36389 38.03032,32.97991 55.09919,61.45281 -5.49323,23.79104 -12.97857,39.67321 -22.794,62.83595 z"
         style="fill:#b99e85;fill-opacity:1;fill-rule:evenodd;stroke:none;stroke-width:1px;stroke-linecap:butt;stroke-linejoin:miter;stroke-opacity:1" />
      <path
         sodipodi:nodetypes="cccccc"
         inkscape:connector-curvature="0"
         id="path4237"
         d="m 158.84931,426.96797 c 2.12764,29.57197 1.71975,41.08827 -3.96498,57.63963 l 112.69704,95.82092 c 17.64324,-7.00318 35.28648,-11.5516 52.92972,-21.14097 l -63.26816,-48.36501 z"
         style="fill:#c2ab94;fill-opacity:1;fill-rule:evenodd;stroke:none;stroke-width:1px;stroke-linecap:butt;stroke-linejoin:miter;stroke-opacity:1" />
      <path
         sodipodi:nodetypes="csssccssscc"
         inkscape:connector-curvature="0"
         id="path4892-5"
         d="M 296.44786,929.14153 C 329.414,841.23176 268.33209,769.61619 230.51557,720.35589 178.85302,653.05962 348.98997,399.96848 346.68198,356.15848 339.97982,228.93771 262.9854,204.18542 235.22501,141.09357 200.68904,62.602776 213.24759,31.206435 213.24759,31.206435 l 20.34481,-7.629301 c 0,0 -12.55852,31.396323 21.97743,109.887136 27.7604,63.09181 104.7548,87.84414 111.45697,215.06489 2.30798,43.81002 -167.82897,296.90115 -116.16641,364.19743 37.81654,49.26029 98.89842,120.87587 65.93229,208.78558 z"
         style="fill:#1e3d11;fill-opacity:1;fill-rule:evenodd;stroke:#000000;stroke-width:1.27155125px;stroke-linecap:butt;stroke-linejoin:miter;stroke-opacity:1" />
      <path
         sodipodi:nodetypes="cccscc"
         inkscape:connector-curvature="0"
         id="path4884"
         d="m 232.05549,130.81383 2.68741,11.64161 -8.75882,-3.54887 c -0.6882,0.0684 -7.27614,-7.64061 -2.51315,-21.49217 3.71355,-10.79947 5.3571,-0.82252 5.3571,-0.82252 -0.29086,4.16402 -1.44092,7.67009 3.22746,14.22195 z"
         style="fill:#deaa87;fill-opacity:1;fill-rule:evenodd;stroke:#000000;stroke-width:1.05511379px;stroke-linecap:butt;stroke-linejoin:miter;stroke-opacity:1" />
      <path
         sodipodi:nodetypes="cssscc"
         inkscape:connector-curvature="0"
         id="path4173"
         d="m 119.86037,250.42584 c 0,0 -16.41127,-38.96699 -8.42771,-45.67532 7.98359,-6.70831 15.79309,-21.62926 25.23629,-28.60483 9.44319,-6.97556 10.72879,-15.45544 25.15467,-13.59988 14.42587,1.85558 57.11413,48.75268 57.11413,48.75268 z"
         style="fill:#6c5353;fill-rule:evenodd;stroke:#000000;stroke-width:1.20283294px;stroke-linecap:butt;stroke-linejoin:miter;stroke-opacity:1" />
      <path
         sodipodi:nodetypes="cccc"
         inkscape:connector-curvature="0"
         id="path4235"
         d="m 481.19849,673.92969 c 14.63094,14.90621 77.4641,-81.83538 66.92377,-93.69326 l -84.13273,16.25291 z"
         style="fill:#916f6f;fill-rule:evenodd;stroke:#000000;stroke-width:1.27155125px;stroke-linecap:butt;stroke-linejoin:miter;stroke-opacity:1" />
      <path
         sodipodi:nodetypes="csscssc"
         inkscape:connector-curvature="0"
         id="path4142"
         d="m 285.0039,882.07053 c -7.235,-2.06714 42.27496,-95.3137 57.69075,-106.55129 12.40486,-9.04273 -68.28703,-110.08339 -56.51341,-115.97019 11.77364,-5.88682 100.07582,-33.55485 100.07582,-33.55485 0,0 39.44165,143.63822 31.20011,168.36283 -8.24154,24.7246 -72.99647,82.41537 -85.94747,98.89845 -7.73237,9.84119 -46.5058,-11.18495 -46.5058,-11.18495 z"
         style="fill:#deaa87;fill-rule:evenodd;stroke:#000000;stroke-width:1.27155125px;stroke-linecap:butt;stroke-linejoin:miter;stroke-opacity:1" />
      <path
         sodipodi:nodetypes="cssssc"
         inkscape:connector-curvature="0"
         id="path5635"
         d="m 228.33874,293.29158 c -6.78502,5.08877 3.10665,8.30983 4.68279,18.38663 2.8039,17.92624 -12.34682,36.53739 -27.66626,35.26076 -15.31944,-1.27661 -27.0828,4.24926 -27.0828,-11.07018 0,-15.31944 -10.2825,-27.32727 -11.55913,-33.71037 -1.27661,-6.3831 61.6254,-8.86684 61.6254,-8.86684 z"
         style="fill:#c98e79;fill-opacity:1;fill-rule:evenodd;stroke:none;stroke-width:1px;stroke-linecap:butt;stroke-linejoin:miter;stroke-opacity:1" />
      <path
         sodipodi:nodetypes="cscscccccccccsscc"
         inkscape:connector-curvature="0"
         id="path4187"
         d="m 165.54659,332.54915 39.83043,21.10257 c 17.30442,9.16806 40.15424,46.84662 40.15424,46.84662 -2.96152,-0.98717 -6.29682,-50.06096 -1.67309,-68.59685 5.40256,-21.65819 -9.61296,-33.08408 -9.61296,-33.08408 l 21.00081,-4.53354 c -2.37545,28.4426 14.71625,47.65619 38.80497,76.09879 l -30.11568,-5.01929 -8.36548,48.51972 c 31.27793,29.32378 66.53829,38.73541 93.69325,88.67399 l 16.73096,45.17352 -15.05785,11.71166 c -18.32601,-63.78949 -84.3789,-111.66997 -127.15514,-167.30938 0,0 -28.4426,0 -28.4426,15.05784 0,15.05785 -3.40016,-14.62608 -8.41944,-31.35704 -5.01927,-16.73092 -24.71862,-26.28375 -24.71862,-26.28375 z"
         style="fill:#bda9a9;fill-opacity:1;fill-rule:evenodd;stroke:#000000;stroke-width:1.27155125px;stroke-linecap:butt;stroke-linejoin:miter;stroke-opacity:1" />
      <path
         sodipodi:nodetypes="ccsccsc"
         inkscape:connector-curvature="0"
         id="path4144"
         d="m 429.81946,605.97906 47.09449,-68.28701 c -0.68629,-1.37258 85.87793,50.48753 110.67207,96.54371 12.25266,22.75986 -11.77362,145.99292 -11.77362,145.99292 l -43.56242,-10.59626 c -2.24385,-0.26344 -14.55322,-62.33277 -11.18493,-83.00404 1.71615,-10.53208 -94.68197,-80.30568 -91.24559,-80.64932 z"
         style="fill:#deaa87;fill-rule:evenodd;stroke:#000000;stroke-width:1.27155125px;stroke-linecap:butt;stroke-linejoin:miter;stroke-opacity:1" />
      <path
         sodipodi:nodetypes="cscscc"
         inkscape:connector-curvature="0"
         id="path4261"
         d="m 327.5033,737.87056 c 0,0 22.41025,31.03134 17.43843,36.33005 -14.24179,15.17811 -42.65108,65.35348 -41.41624,64.66744 0,0 50.13543,-42.86945 53.76845,-55.22166 3.633,-12.35221 -13.0788,-53.76845 -13.0788,-53.76845 z"
         style="fill:#b27c69;fill-opacity:1;fill-rule:evenodd;stroke:none;stroke-width:1px;stroke-linecap:butt;stroke-linejoin:miter;stroke-opacity:1" />
      <path
         sodipodi:nodetypes="ccsccc"
         inkscape:connector-curvature="0"
         id="path4259"
         d="m 472.27084,638.87887 0.52193,-29.43244 c 0,0 51.41468,38.38704 60.36927,61.66896 8.95457,23.28191 -6.2017,81.94215 -6.2017,81.94215 -1.07943,-19.14652 -3.52349,-46.65799 -6.41148,-73.03874 z"
         style="fill:#b27c69;fill-opacity:1;fill-rule:evenodd;stroke:none;stroke-width:1px;stroke-linecap:butt;stroke-linejoin:miter;stroke-opacity:1" />
      <path
         sodipodi:nodetypes="cscsscssssc"
         inkscape:connector-curvature="0"
         id="path4171"
         d="m 265.40387,583.07133 c 0,0 71.98754,-20.50112 96.31285,-41.50935 24.32535,-21.00824 66.34182,-59.70763 66.34182,-59.70763 -18.12861,0 106.26273,61.76772 120.52096,96.19563 2.67575,6.46088 -59.70764,15.47974 -67.44752,42.01649 -7.73987,26.53671 -1.10568,54.17914 -1.10568,54.17914 0,0 -46.45275,-36.93297 -63.03821,-36.93297 -16.58545,0 6.86071,64.56191 4.64931,71.19609 -2.21138,6.63416 -89.1198,39.28027 -97.96536,32.64609 -8.84558,-6.6342 -48.85061,-61.30923 -48.85061,-80.1061 0,-18.79684 -9.41756,-77.97739 -9.41756,-77.97739 z"
         style="fill:#f4e3d7;fill-rule:evenodd;stroke:#000000;stroke-width:1.27155125px;stroke-linecap:butt;stroke-linejoin:miter;stroke-opacity:1" />
      <path
         sodipodi:nodetypes="csssc"
         inkscape:connector-curvature="0"
         id="path4152-3"
         d="m 266.58995,401.32993 c 2.35472,-2.35472 47.14946,-16.74272 50.00899,-13.14241 9.77285,12.30453 -3.14925,59.16064 -7.27002,63.28143 -4.12077,4.12075 -40.38425,29.92161 -45.68239,27.56689 -5.29811,-2.35472 1.17738,-73.58514 2.94342,-77.70591 z"
         style="fill:#808080;fill-rule:evenodd;stroke:#000000;stroke-width:1.27155125px;stroke-linecap:butt;stroke-linejoin:miter;stroke-opacity:1" />
      <path
         inkscape:connector-curvature="0"
         id="path4152"
         d="m 274.21926,406.41613 c 2.35472,-2.35472 41.79636,-15.30572 45.32844,-12.36229 3.53208,2.94341 -4.70944,74.7625 -8.83021,78.88326 -4.12077,4.12076 -34.14351,13.53967 -39.44164,11.18495 -5.29813,-2.35474 1.17736,-73.58514 2.94341,-77.70592 z"
         style="fill:#241c1c;fill-rule:evenodd;stroke:#000000;stroke-width:1.27155125px;stroke-linecap:butt;stroke-linejoin:miter;stroke-opacity:1" />
      <path
         sodipodi:nodetypes="ccssccccccsssc"
         inkscape:connector-curvature="0"
         id="path4146"
         d="m 210.07334,488.92099 18.583,30.6174 c 0,0 27.96698,-30.25007 36.58531,-22.71612 4.20983,3.68015 38.00055,-7.20854 44.71535,-11.8519 10.08777,-6.97579 -12.74945,-4.45567 -13.93727,-3.95064 8.42414,-2.03583 18.27106,-2.28391 21.48661,-10.86422 -2.35323,-6.10831 -10.42961,-0.0497 -15.67941,0 9.0532,-1.73056 22.09732,-2.90777 18.11322,-13.26123 l -15.20962,2.89082 c 12.83197,-0.11692 19.51765,-3.95667 15.51628,-18.38818 1.37928,1.75936 -15.51628,18.38818 -56.16661,13.4499 -4.37817,-0.53188 2.47709,-22.13028 -3.45822,-21.51761 -15.47625,1.59753 -23.98866,36.41823 -25.57774,40.28313 -2.49897,6.07792 -24.9709,15.30865 -24.9709,15.30865 z"
         style="fill:#deaa87;fill-rule:evenodd;stroke:#000000;stroke-width:1.15671122px;stroke-linecap:butt;stroke-linejoin:miter;stroke-opacity:1" />
      <path
         sodipodi:nodetypes="cccccsc"
         inkscape:connector-curvature="0"
         id="path4179"
         d="m 113.35686,378.74812 c 12.40838,25.28337 32.14349,31.02878 36.80805,76.96233 l 10.03857,66.92373 53.539,-41.82734 c 14.04356,8.8742 28.72165,13.94133 38.48117,48.51972 0,0 -108.75111,87.00088 -123.80894,75.28922 C 113.35686,592.90414 39.740725,432.28712 113.35686,378.74812 Z"
         style="fill:#d1c0af;fill-opacity:1;fill-rule:evenodd;stroke:#000000;stroke-width:1.27155125px;stroke-linecap:butt;stroke-linejoin:miter;stroke-opacity:1" />
      <path
         sodipodi:nodetypes="ccccc"
         inkscape:connector-curvature="0"
         id="path4214"
         d="m 522.28549,725.3234 c 37.85096,21.58855 47.93991,10.78808 62.0269,4.65201 l -9.30404,80.63497 -43.41882,-10.85471 z"
         style="fill:#e6e6e6;fill-rule:evenodd;stroke:#000000;stroke-width:1.27155125px;stroke-linecap:butt;stroke-linejoin:miter;stroke-opacity:1" />
      <path
         sodipodi:nodetypes="ccccc"
         inkscape:connector-curvature="0"
         id="path4216"
         d="m 308.29269,824.56644 c 1.84655,28.65 18.33093,42.66218 44.96951,46.52016 l -46.52018,49.6216 -29.46277,-31.01352 z"
         style="fill:#e6e6e6;fill-rule:evenodd;stroke:#000000;stroke-width:1.27155125px;stroke-linecap:butt;stroke-linejoin:miter;stroke-opacity:1" />
      <path
         sodipodi:nodetypes="cscsccsssc"
         inkscape:connector-curvature="0"
         id="path4218"
         d="m 578.10969,782.69829 c 0,0 -1.55067,6.20268 -23.26009,9.30402 -21.70942,3.10134 -27.9121,-23.26009 -27.9121,-23.26009 0,0 -16.55719,29.56282 -15.00652,38.86685 1.55067,9.30403 15.53176,24.83577 15.53176,24.83577 l 11.88014,2.9763 c 0,0 34.01475,58.47536 63.47752,61.5767 29.46279,3.10134 32.85691,-16.75813 26.01129,-31.01344 -13.3558,-27.81207 -37.26616,-37.86642 -40.36752,-45.61979 -3.10134,-7.75336 -10.35448,-37.66632 -10.35448,-37.66632 z"
         style="fill:#483737;fill-rule:evenodd;stroke:#000000;stroke-width:1.27155125px;stroke-linecap:butt;stroke-linejoin:miter;stroke-opacity:1" />
      <path
         sodipodi:nodetypes="cscsccsssc"
         inkscape:connector-curvature="0"
         id="path4218-7"
         d="m 327.3502,901.21199 c 0,0 -3.0437,5.62264 -24.84269,3.23079 -21.79899,-2.39184 -21.25493,-29.4677 -21.25493,-29.4677 0,0 -23.38541,24.51984 -24.19591,33.91731 -0.81051,9.39753 8.87143,27.91675 8.87143,27.91675 l 10.76759,5.83577 c 0,0 18.41335,65.09459 46.18071,75.42159 27.76739,10.327 35.99107,-8.0657 32.9034,-23.57511 -6.02401,-30.25892 -26.68504,-45.94056 -27.76199,-54.22144 -1.07693,-8.28087 -0.66761,-39.05796 -0.66761,-39.05796 z"
         style="fill:#483737;fill-rule:evenodd;stroke:#000000;stroke-width:1.27155125px;stroke-linecap:butt;stroke-linejoin:miter;stroke-opacity:1" />
      <path
         inkscape:connector-curvature="0"
         id="path4239"
         d="m 472.20203,668.19335 -61.90448,-43.50043 c 0,0 -3.34618,-28.44258 -15.05784,-48.51972 -11.71165,-20.07714 50.19283,1.67311 50.19283,1.67311 L 482.2406,607.962 Z"
         style="fill:#daccbe;fill-opacity:1;fill-rule:evenodd;stroke:none;stroke-width:1px;stroke-linecap:butt;stroke-linejoin:miter;stroke-opacity:1" />
      <path
         sodipodi:nodetypes="ccccccc"
         inkscape:connector-curvature="0"
         id="path4243"
         d="m 324.16668,741.80951 16.73094,-6.69237 -30.91877,-65.25068 -21.44428,-93.2917 -19.87536,6.86016 c 1.66026,15.08544 8.40671,68.7607 10.06696,85.18261 9.36752,31.33251 30.02149,49.12128 45.44051,73.19198 z"
         style="fill:#daccbe;fill-opacity:1;fill-rule:evenodd;stroke:none;stroke-width:1px;stroke-linecap:butt;stroke-linejoin:miter;stroke-opacity:1" />
      <path
         sodipodi:nodetypes="cssssc"
         inkscape:connector-curvature="0"
         id="path4169"
         d="m 211.32343,269.59379 c 24.67576,-15.0136 107.23809,-66.60102 72.31773,-87.29235 -42.4324,-25.1424 -94.36992,-14.43198 -121.66929,-2.18865 -40.93731,18.35978 -35.25378,64.52414 -68.058376,69.55878 -50.173403,7.70029 -38.653033,8.01811 -7.844118,35.11375 23.976924,21.08705 125.254054,-15.19153 125.254054,-15.19153 z"
         style="fill:#ac9393;fill-opacity:1;fill-rule:evenodd;stroke:#000000;stroke-width:1.29858196px;stroke-linecap:butt;stroke-linejoin:miter;stroke-opacity:1" />
      <path
         sodipodi:nodetypes="csssssc"
         inkscape:connector-curvature="0"
         id="path4265"
         d="m 257.46879,237.3697 c 0,-19.48346 16.93684,-37.15691 -1.52118,-41.25868 -18.45799,-4.10177 -77.28613,3.34619 -95.74413,17.70242 -18.458,14.35624 -44.09412,36.75411 -55.374,41.88133 -11.279887,5.12722 -21.534342,25.63611 -8.203563,27.687 13.330783,2.0509 32.777383,4.64746 50.379713,2.7725 50.98738,-5.43106 110.46316,-48.78457 110.46316,-48.78457 z"
         style="fill:#896f66;fill-opacity:1;fill-rule:evenodd;stroke:none;stroke-width:1px;stroke-linecap:butt;stroke-linejoin:miter;stroke-opacity:1" />
      <path
         sodipodi:nodetypes="csssssc"
         inkscape:connector-curvature="0"
         id="path4150"
         d="m 155.99526,289.30559 c 9.91345,19.86199 31.29176,32.51411 56.38893,24.86252 15.16172,-4.62248 23.2445,-17.21977 16.59407,-52.29169 -5.30639,-27.98403 -2.35238,-38.88624 -14.61611,-49.72507 -8.18548,-7.23443 -31.85984,0.46689 -50.10894,12.82918 -18.24913,12.36231 -30.37798,17.4067 -29.9517,28.3785 0.78006,20.07777 21.69375,35.94656 21.69375,35.94656 z"
         style="fill:#e9c6af;fill-opacity:1;fill-rule:evenodd;stroke:#000000;stroke-width:1.27155125px;stroke-linecap:butt;stroke-linejoin:miter;stroke-opacity:1" />
      <path
         sodipodi:nodetypes="ccsscsc"
         inkscape:connector-curvature="0"
         id="path4251"
         d="m 155.68676,280.70494 -10.81434,-7.42649 c 0,0 16.30617,26.87531 20.98673,27.65541 4.68056,0.7801 7.80094,16.38196 35.88427,13.26158 3.87661,-0.43074 8.58103,-4.68056 8.58103,-4.68056 -0.99786,2.49465 -28.85179,-14.9869 -30.82926,-24.08482 -1.11149,-5.11361 -23.80843,-4.72512 -23.80843,-4.72512 z"
         style="fill:#cfac8f;fill-opacity:1;fill-rule:evenodd;stroke:none;stroke-width:1px;stroke-linecap:butt;stroke-linejoin:miter;stroke-opacity:1" />
      <path
         sodipodi:nodetypes="ccsc"
         inkscape:connector-curvature="0"
         id="path4189"
         d="m 218.14877,282.1127 -1.99639,5.55521 c -3.47376,-5.15072 -20.29378,9.71284 -19.51721,7.9647 2.09561,-4.71743 18.15208,-14.29337 21.5136,-13.51991 z"
         style="fill:#000000;fill-opacity:1;fill-rule:evenodd;stroke:none;stroke-width:1px;stroke-linecap:butt;stroke-linejoin:miter;stroke-opacity:1" />
      <path
         sodipodi:nodetypes="cccsccc"
         inkscape:connector-curvature="0"
         id="path4191"
         d="m 188.97871,244.12792 5.39,2.65905 4.71403,-1.47812 c -2.00032,2.78158 3.69333,8.14274 5.84061,5.41716 1.0859,-1.37835 -2.74065,-7.77514 -2.74065,-7.77514 l 6.21936,-5.26376 c -9.6862,0.39615 -13.71778,3.87475 -19.42335,6.44081 z"
         style="fill:#000000;fill-opacity:1;fill-rule:evenodd;stroke:none;stroke-width:1px;stroke-linecap:butt;stroke-linejoin:miter;stroke-opacity:1" />
      <path
         sodipodi:nodetypes="cscsc"
         inkscape:connector-curvature="0"
         id="path4263"
         d="m 143.26314,264.92378 c 0,0 34.8651,-33.83969 66.6539,-38.96691 16.32382,-2.63286 -1.02545,-19.48345 -1.02545,-19.48345 0,0 -59.47578,20.5089 -62.55212,29.7379 -3.07633,9.22899 -3.07633,28.71246 -3.07633,28.71246 z"
         style="fill:#c29b8b;fill-opacity:1;fill-rule:evenodd;stroke:none;stroke-width:1px;stroke-linecap:butt;stroke-linejoin:miter;stroke-opacity:1" />
      <path
         sodipodi:nodetypes="cssccccssc"
         inkscape:connector-curvature="0"
         id="path4193"
         d="m 159.6554,294.06938 c 0,0 -0.62442,-7.11902 -3.14699,-8.96278 -22.61977,-16.53271 -2.78323,-5.76839 -2.78341,-10.73238 -7e-5,-2.20939 -11.49361,-9.11498 -11.49361,-9.11498 l 4.27003,-27.9164 -9.3174,5.75486 -6.85104,13.15398 c 0,0 -7.39909,16.44249 -2.74039,21.64927 4.65868,5.20678 14.52417,9.04334 17.53863,12.33183 3.01445,3.28852 14.52418,3.8366 14.52418,3.8366 z"
         style="fill:#341d0e;fill-opacity:1;fill-rule:evenodd;stroke:#000000;stroke-width:0.31788781;stroke-linecap:butt;stroke-linejoin:miter;stroke-miterlimit:4;stroke-dasharray:none;stroke-opacity:1" />
      <path
         sodipodi:nodetypes="cscscsscssscsc"
         inkscape:connector-curvature="0"
         id="path4195"
         d="m 230.084,249.12661 c 0,0 -8.76934,-6.30293 -9.86548,-10.13952 l -1.09617,-3.83658 c 0,0 -5.75488,-15.89439 -7.12507,-16.99055 -1.37021,-1.09617 -1.64425,-1.37023 -1.64425,-1.37023 0,0 -8.22123,-6.0289 -12.60591,-3.83657 -4.38464,2.19234 -16.44247,7.12508 -19.18286,7.39911 -2.74043,0.27404 -11.23571,1.91829 -11.23571,1.91829 0,0 25.48583,-19.45695 30.96667,-19.73099 5.48081,-0.27404 13.9761,-2.74041 17.53864,2.19235 3.56253,4.93274 4.11061,11.78377 8.22123,14.25016 l 4.11062,2.46635 c 0,0 4.38466,7.12507 3.01445,11.23571 -1.3702,4.11062 -5.20678,16.99055 -1.09616,16.44247 z"
         style="fill:#341d0e;fill-opacity:1;fill-rule:evenodd;stroke:#000000;stroke-width:0.31788781;stroke-linecap:butt;stroke-linejoin:miter;stroke-miterlimit:4;stroke-dasharray:none;stroke-opacity:1" />
      <path
         sodipodi:nodetypes="cccsccc"
         inkscape:connector-curvature="0"
         id="path4191-6"
         d="m 176.10519,249.8187 -2.473,4.97309 -4.57778,1.63604 c 3.31028,0.84261 2.31836,7.91654 -1.06982,7.19776 -1.71343,-0.36348 -2.82043,-7.11058 -2.82043,-7.11058 l -8.14334,-0.20534 c 7.72946,-5.24561 13.05041,-5.06513 19.08437,-6.49097 z"
         style="fill:#000000;fill-opacity:1;fill-rule:evenodd;stroke:none;stroke-width:1px;stroke-linecap:butt;stroke-linejoin:miter;stroke-opacity:1" />
      <path
         sodipodi:nodetypes="cccc"
         inkscape:connector-curvature="0"
         id="path4212"
         d="m 189.79993,259.81423 2.46637,8.76932 4.11063,0.27404 z"
         style="fill:#000000;fill-opacity:1;fill-rule:evenodd;stroke:none;stroke-width:1px;stroke-linecap:butt;stroke-linejoin:miter;stroke-opacity:1" />
      <path
         sodipodi:nodetypes="ccscsc"
         inkscape:connector-curvature="0"
         id="path4249"
         d="m 250.19708,531.42384 c -5.37274,-8.95459 -8.9546,-14.32735 -8.9546,-14.32735 0,0 -84.17311,66.26393 -96.70952,66.26393 -12.53643,0 -58.817127,-104.54669 -58.817127,-104.54669 -4.845179,-1.61506 26.534207,124.82829 46.280697,126.0377 16.08812,0.98535 118.20055,-73.42759 118.20055,-73.42759 z"
         style="fill:#b99e85;fill-opacity:1;fill-rule:evenodd;stroke:none;stroke-width:1px;stroke-linecap:butt;stroke-linejoin:miter;stroke-opacity:1" />
      <path
         sodipodi:nodetypes="ssccscsccccs"
         inkscape:connector-curvature="0"
         id="path4888"
         d="m 243.20893,87.024454 c -4.35411,-2.558207 -17.33877,3.113994 -15.99112,10.64941 1.02056,5.706316 5.24534,3.628956 5.24534,3.628956 l 9.26447,-6.46396 c 0,0 -11.69705,7.97518 -8.30789,15.50534 1.28523,2.85558 8.86623,-7.03497 13.26166,-6.43142 -4.324,3.16581 -9.89597,6.50825 -7.02185,11.06886 1.70936,2.71242 13.02985,-4.28354 13.02985,-4.28354 -1.65454,0.16768 -7.67494,7.20072 -2.14788,8.26719 2.83044,0.323 10.7377,-6.98282 16.42284,-2.788 0,0 1.12552,-4.09537 -3.47563,-9.48365 -7.25427,-14.276664 -10.3177,-13.816067 -20.27979,-19.669186 z"
         style="fill:#deaa87;fill-opacity:1;fill-rule:evenodd;stroke:#000000;stroke-width:1.34202528px;stroke-linecap:butt;stroke-linejoin:miter;stroke-opacity:1" />
      <path
         sodipodi:nodetypes="csccsc"
         inkscape:connector-curvature="0"
         id="path4996"
         d="m 242.28571,300.3622 c 0,0 10.28572,17.71429 9.71429,32.57143 -0.57143,14.85715 2.28571,77.14286 2.28571,77.14286 l -9.14285,-8 c 0,0 -3.23399,-42.04292 -1.71429,-50.85715 2.85714,-16.57142 4,-46.28571 -1.14286,-50.85714 z"
         style="fill:#a58a8a;fill-opacity:1;fill-rule:evenodd;stroke:none;stroke-width:1px;stroke-linecap:butt;stroke-linejoin:miter;stroke-opacity:1" />
    </g>
  </g>
</svg>
